<?xml version="1.0" standalone="no"?>
<!DOCTYPE svg PUBLIC "-//W3C//DTD SVG 20010904//EN"
 "http://www.w3.org/TR/2001/REC-SVG-20010904/DTD/svg10.dtd">
<svg version="1.0" xmlns="http://www.w3.org/2000/svg"
 width="458.000000pt" height="65.000000pt" viewBox="0 0 458.000000 65.000000"
 preserveAspectRatio="xMidYMid meet">
<metadata>
Created by potrace 1.16, written by Peter Selinger 2001-2019
</metadata>
<g transform="translate(0.000000,65.000000) scale(0.100000,-0.100000)"
fill="#000000" stroke="none">
<path d="M3600 367 l0 -287 70 0 70 0 0 122 0 123 160 -160 c88 -88 164 -161
170 -163 7 -3 10 90 10 277 l0 281 -70 0 -70 0 0 -122 0 -123 -170 170 -170
170 0 -288z"/>
<path d="M340 390 l0 -170 -105 0 -105 0 0 102 0 102 -65 -64 -65 -64 0 -78
c0 -67 3 -81 24 -105 l24 -28 164 -3 c95 -2 178 1 198 7 61 18 65 32 68 264
l3 207 -70 0 -71 0 0 -170z"/>
<path d="M512 345 c4 -282 -16 -260 238 -260 254 0 234 -22 238 260 l3 215
-70 0 -71 0 0 -170 0 -170 -100 0 -100 0 0 170 0 170 -71 0 -70 0 3 -215z"/>
<path d="M1073 550 c-36 -15 -47 -49 -48 -142 0 -72 3 -91 21 -115 28 -37 47
-41 197 -42 106 -1 127 -4 127 -16 0 -13 -20 -15 -123 -15 l-123 0 -69 -70
-70 -71 232 3 233 3 27 28 c27 26 28 32 28 122 0 90 -1 96 -28 122 -27 28 -29
28 -172 31 -135 3 -145 5 -145 23 0 18 8 19 127 19 l127 0 63 62 63 62 0 -62
0 -62 85 0 85 0 0 -175 0 -175 70 0 70 0 0 175 0 175 38 0 c33 0 45 8 102 65
l64 65 -479 -1 c-264 0 -490 -4 -502 -9z"/>
<path d="M2100 547 c-36 -18 -53 -77 -47 -165 3 -63 8 -77 31 -100 26 -26 30
-27 171 -30 116 -3 145 -7 145 -18 0 -11 -24 -14 -123 -14 l-123 0 -69 -70
-69 -70 216 0 c119 0 228 4 242 10 46 17 61 55 61 152 -1 83 -3 90 -28 116
-27 27 -30 27 -172 30 -135 3 -145 5 -145 23 0 18 8 19 127 19 l127 0 58 57
c32 32 58 61 58 65 0 14 -432 9 -460 -5z"/>
<path d="M2599 531 l-29 -29 0 -181 c0 -176 1 -181 24 -208 l24 -28 191 0
c254 0 236 -18 236 236 l0 191 -28 24 c-27 23 -32 24 -208 24 l-181 0 -29 -29z
m311 -206 l0 -105 -100 0 -100 0 0 105 0 105 100 0 100 0 0 -105z"/>
<path d="M3080 365 c0 -230 6 -257 67 -275 24 -7 98 -10 201 -8 l164 3 24 28
c24 28 24 31 24 238 l0 209 -65 0 -65 0 0 -170 0 -170 -105 0 -105 0 0 170 0
170 -70 0 -70 0 0 -195z"/>
<path d="M4110 319 l0 -240 214 3 c194 3 216 5 235 22 20 18 21 29 21 215 0
108 -4 201 -8 207 -19 29 -56 34 -256 34 l-206 0 0 -241z m350 6 l0 -105 -105
0 -105 0 0 105 0 105 105 0 105 0 0 -105z"/>
</g>
</svg>
