<svg width="130" height="82" viewBox="0 0 130 82" fill="none" xmlns="http://www.w3.org/2000/svg">
<path d="M68.64 25.44C68.64 28.064 68.176 30.464 67.248 32.64C66.32 34.816 65.072 36.832 63.504 38.688C61.968 40.512 60.16 42.192 58.08 43.728C56.032 45.264 53.872 46.688 51.6 48C50.544 48.608 49.104 49.376 47.28 50.304C45.456 51.264 43.456 52.272 41.28 53.328C39.136 54.384 36.912 55.44 34.608 56.496C32.336 57.552 30.224 58.512 28.272 59.376C26.32 60.24 24.64 60.928 23.232 61.44C21.792 61.984 20.864 62.256 20.448 62.256C20.416 62.256 20.4 62.24 20.4 62.208C20.464 62.144 20.592 62.08 20.784 62.016C20.944 61.952 21.088 61.888 21.216 61.824V61.776C20.928 61.936 20.64 62.032 20.352 62.064C20.064 62.128 19.808 62.24 19.584 62.4L15.744 63.408C15.68 63.344 15.616 63.312 15.552 63.312H15.456C15.424 63.312 15.408 63.296 15.408 63.264L15.456 63.168C15.744 63.072 16.096 62.96 16.512 62.832C16.896 62.736 17.216 62.576 17.472 62.352L19.248 61.728C19.408 61.728 19.552 61.664 19.68 61.536C19.808 61.408 19.92 61.312 20.016 61.248C18.8 61.536 17.6 61.968 16.416 62.544C15.2 63.12 13.968 63.6 12.72 63.984C12.752 63.952 12.768 63.904 12.768 63.84C12.768 63.744 12.752 63.648 12.72 63.552C12.976 63.552 13.232 63.472 13.488 63.312C13.712 63.184 13.904 63.072 14.064 62.976C14.224 62.976 14.464 62.928 14.784 62.832C15.072 62.736 15.36 62.608 15.648 62.448H15.696C15.76 62.448 15.824 62.4 15.888 62.304C15.952 62.208 16.032 62.128 16.128 62.064H16.032C15.712 62.064 15.536 62.176 15.504 62.4L12.624 63.216C12.496 63.12 12.336 63.072 12.144 63.072C11.856 63.072 11.552 63.12 11.232 63.216C10.88 63.344 10.528 63.472 10.176 63.6C9.824 63.76 9.472 63.904 9.12 64.032C8.736 64.16 8.384 64.24 8.064 64.272C7.872 64.464 7.568 64.656 7.152 64.848C6.736 65.072 6.272 65.184 5.76 65.184C5.504 65.184 5.312 65.136 5.184 65.04C6.048 64.72 6.816 64.416 7.488 64.128C8.16 63.872 8.832 63.488 9.504 62.976C10.432 62.432 11.328 61.984 12.192 61.632C13.024 61.28 13.92 60.912 14.88 60.528L15.168 60.24L14.88 60.384L14.112 60.528L13.2 60.96L12.576 60.864C12.576 60.864 12.816 60.752 13.296 60.528C13.744 60.336 14.256 60.096 14.832 59.808C15.376 59.552 15.872 59.28 16.32 58.992C16.768 58.736 16.992 58.528 16.992 58.368L15.216 59.088C15.248 59.056 15.264 59.024 15.264 58.992V58.944C15.232 58.912 15.216 58.88 15.216 58.848C15.92 58.56 16.512 58.272 16.992 57.984C17.472 57.696 18.096 57.424 18.864 57.168C19.024 56.912 19.2 56.752 19.392 56.688C19.552 56.624 19.776 56.592 20.064 56.592C20.544 56.304 21.008 56.064 21.456 55.872C21.904 55.68 22.352 55.472 22.8 55.248C23.248 55.056 23.712 54.832 24.192 54.576C24.672 54.352 25.2 54.064 25.776 53.712L25.872 53.376L26.208 53.52C26.272 53.296 26.4 53.136 26.592 53.04C26.784 52.944 26.96 52.864 27.12 52.8L30.192 51.12C30.352 51.088 30.688 50.944 31.2 50.688C31.744 50.464 32.288 50.208 32.832 49.92C33.408 49.632 33.904 49.344 34.32 49.056C34.768 48.8 34.992 48.624 34.992 48.528V48.48C34.928 48.512 34.864 48.528 34.8 48.528C34.704 48.528 34.624 48.512 34.56 48.48C34.496 48.448 34.416 48.432 34.32 48.432C33.584 48.88 32.88 49.248 32.208 49.536C31.568 49.824 30.8 50.224 29.904 50.736C29.84 50.736 29.712 50.768 29.52 50.832C29.328 50.928 29.184 50.992 29.088 51.024L28.896 50.928C29.344 50.768 29.76 50.544 30.144 50.256C30.528 50 30.912 49.792 31.296 49.632V49.584L26.88 51.504C26.336 51.568 25.76 51.792 25.152 52.176C24.576 52.56 23.952 52.928 23.28 53.28C23.024 53.344 22.736 53.44 22.416 53.568C22.064 53.696 21.744 53.84 21.456 54C21.136 54.16 20.864 54.304 20.64 54.432C20.416 54.592 20.304 54.736 20.304 54.864C20.336 54.928 20.352 54.96 20.352 54.96C20.64 54.864 20.928 54.784 21.216 54.72C21.472 54.656 21.712 54.496 21.936 54.24L21.888 54.72C21.792 54.848 21.648 54.96 21.456 55.056C21.232 55.184 20.992 55.296 20.736 55.392C20.48 55.488 20.24 55.568 20.016 55.632C19.76 55.728 19.568 55.792 19.44 55.824C18.768 56.208 18.048 56.512 17.28 56.736C16.48 56.992 15.68 57.296 14.88 57.648C14.24 58 13.6 58.304 12.96 58.56C12.32 58.848 11.68 59.12 11.04 59.376C11.136 59.312 11.264 59.232 11.424 59.136C11.552 59.072 11.616 58.976 11.616 58.848C11.616 58.784 11.456 58.64 11.136 58.416C11.232 58.416 11.376 58.416 11.568 58.416C11.76 58.416 11.952 58.4 12.144 58.368C12.304 58.368 12.464 58.336 12.624 58.272C12.752 58.24 12.816 58.192 12.816 58.128C12.816 58.096 12.816 58.064 12.816 58.032C12.784 58.032 12.768 58.016 12.768 57.984L12.72 57.936L12.432 58.032C12.464 58 12.48 57.968 12.48 57.936C12.48 57.936 12.496 57.92 12.528 57.888C12.56 57.888 12.624 57.856 12.72 57.792C12.784 57.76 12.928 57.696 13.152 57.6V57.648C13.152 57.712 13.12 57.776 13.056 57.84L12.96 57.936L14.112 57.696C14.08 57.568 14.032 57.504 13.968 57.504C13.904 57.504 13.856 57.52 13.824 57.552C13.76 57.616 13.696 57.648 13.632 57.648V57.36C14.08 57.264 14.496 57.136 14.88 56.976C15.264 56.816 15.648 56.624 16.032 56.4C15.712 56.528 15.424 56.64 15.168 56.736C14.88 56.832 14.624 56.88 14.4 56.88C14.176 56.88 14 56.816 13.872 56.688C13.904 56.688 14 56.656 14.16 56.592C14.288 56.528 14.432 56.448 14.592 56.352C14.752 56.288 14.912 56.224 15.072 56.16C15.2 56.096 15.264 56.048 15.264 56.016C15.264 55.984 15.264 55.968 15.264 55.968C15.232 55.968 15.216 55.952 15.216 55.92V55.872C14.672 56 14.192 56.192 13.776 56.448C13.36 56.704 12.896 56.912 12.384 57.072C11.84 57.136 11.408 57.296 11.088 57.552C10.768 57.808 10.416 58.048 10.032 58.272L10.512 58.08C10.512 58.208 10.528 58.288 10.56 58.32C10.56 58.352 10.576 58.384 10.608 58.416C10.448 58.448 10.24 58.528 9.984 58.656C9.728 58.816 9.472 58.928 9.216 58.992C9.056 58.864 8.944 58.8 8.88 58.8C8.816 58.8 8.768 58.832 8.736 58.896C8.672 58.992 8.56 59.04 8.4 59.04H8.064C7.68 59.232 7.312 59.392 6.96 59.52C6.608 59.648 6.256 59.728 5.904 59.76C5.648 59.856 5.44 59.984 5.28 60.144C5.088 60.304 4.896 60.384 4.704 60.384C4.64 60.384 4.592 60.368 4.56 60.336C3.632 60.816 2.832 61.232 2.16 61.584C1.456 61.968 0.879999 62.16 0.431999 62.16C0.399999 62.128 0.383999 62.112 0.383999 62.112C0.415999 62.016 0.671999 61.824 1.152 61.536C1.632 61.248 2.176 60.944 2.784 60.624C3.392 60.304 4 60.016 4.608 59.76C5.184 59.536 5.6 59.424 5.856 59.424H6L6.288 59.04C6.224 59.04 6.176 59.04 6.144 59.04C6.08 59.04 6.048 58.992 6.048 58.896C6.048 58.864 6.192 58.784 6.48 58.656C6.768 58.56 7.104 58.432 7.488 58.272C7.872 58.112 8.256 57.936 8.64 57.744C9.024 57.584 9.312 57.424 9.504 57.264C9.408 57.264 9.312 57.264 9.216 57.264C9.088 57.296 8.96 57.312 8.832 57.312C8.672 57.312 8.544 57.296 8.448 57.264C8.736 57.008 9.168 56.816 9.744 56.688C10.32 56.56 10.784 56.496 11.136 56.496H11.376C13.072 55.728 14.672 54.992 16.176 54.288C17.68 53.616 19.184 52.88 20.688 52.08C21.712 51.536 22.736 50.976 23.76 50.4C24.752 49.824 25.712 49.456 26.64 49.296C26.992 49.072 27.28 48.848 27.504 48.624C27.728 48.4 28.016 48.24 28.368 48.144C28.912 47.856 29.456 47.6 30 47.376C30.576 47.12 31.168 46.672 31.776 46.032C32.416 45.904 32.976 45.776 33.456 45.648C33.936 45.52 34.368 45.36 34.752 45.168C35.168 44.976 35.568 44.736 35.952 44.448C36.336 44.16 36.736 43.808 37.152 43.392C37.184 43.424 37.248 43.44 37.344 43.44C37.44 43.44 37.616 43.36 37.872 43.2C38.128 43.04 38.4 42.864 38.688 42.672C38.976 42.48 39.248 42.304 39.504 42.144C39.76 41.984 39.968 41.904 40.128 41.904H40.176C40.464 41.84 40.672 41.728 40.8 41.568C40.96 41.376 41.136 41.2 41.328 41.04C41.36 41.136 41.392 41.2 41.424 41.232C41.456 41.264 41.472 41.312 41.472 41.376C41.472 41.408 41.44 41.456 41.376 41.52C41.536 41.456 41.68 41.408 41.808 41.376C41.936 41.312 42.032 41.2 42.096 41.04L42.384 40.896C42.384 40.608 42.336 40.416 42.24 40.32C39.936 41.536 37.68 42.752 35.472 43.968C33.264 45.152 30.88 46.352 28.32 47.568C27.904 47.76 27.584 48.016 27.36 48.336H27.216C26.768 48.336 26.32 48.496 25.872 48.816C25.424 49.168 24.976 49.408 24.528 49.536C23.6 50.08 22.576 50.592 21.456 51.072C20.336 51.584 19.168 52.112 17.952 52.656V52.56C18.016 52.464 18.064 52.416 18.096 52.416C18.096 52.416 18.112 52.336 18.144 52.176L20.016 51.36C20.208 51.104 20.768 50.688 21.696 50.112C22.624 49.568 23.728 48.928 25.008 48.192C26.288 47.488 27.648 46.752 29.088 45.984C30.528 45.216 31.872 44.512 33.12 43.872C34.4 43.2 35.472 42.64 36.336 42.192C37.232 41.712 37.744 41.424 37.872 41.328C38.384 40.976 39.136 40.544 40.128 40.032C41.12 39.488 42.208 38.896 43.392 38.256C44.608 37.584 45.84 36.88 47.088 36.144C48.368 35.376 49.52 34.592 50.544 33.792C51.568 32.96 52.4 32.128 53.04 31.296C53.712 30.464 54.048 29.632 54.048 28.8C54.048 28.448 53.904 28.176 53.616 27.984C53.328 27.76 52.944 27.6 52.464 27.504C51.984 27.376 51.424 27.296 50.784 27.264C50.176 27.232 49.552 27.216 48.912 27.216H46.608C45.648 27.216 44.64 27.264 43.584 27.36C42.528 27.456 41.504 27.568 40.512 27.696C39.52 27.792 38.576 27.904 37.68 28.032C36.816 28.16 36.096 28.256 35.52 28.32C34.848 28.384 34.224 28.432 33.648 28.464C33.104 28.496 32.608 28.512 32.16 28.512C30.24 28.512 28.656 28.32 27.408 27.936C26.192 27.552 25.584 26.944 25.584 26.112C25.584 23.616 26.064 21.344 27.024 19.296C28.016 17.216 29.328 15.36 30.96 13.728C32.592 12.064 34.48 10.592 36.624 9.312C38.768 8.032 40.992 6.912 43.296 5.952C45.6 4.992 47.904 4.192 50.208 3.552C52.544 2.88 54.704 2.352 56.688 1.968C58.704 1.552 60.48 1.264 62.016 1.104C63.584 0.911998 64.736 0.815998 65.472 0.815998C66.272 0.815998 66.976 0.927998 67.584 1.152C68.192 1.376 68.704 1.664 69.12 2.016C69.536 2.368 69.856 2.752 70.08 3.168C70.304 3.584 70.416 3.984 70.416 4.368C70.416 4.528 70.384 4.704 70.32 4.896C70.256 5.088 70.224 5.232 70.224 5.328C70.224 5.392 70.24 5.44 70.272 5.472C70.304 5.472 70.32 5.488 70.32 5.52C70.32 5.712 69.856 6 68.928 6.384C68.032 6.736 66.832 7.184 65.328 7.728C63.824 8.272 62.112 8.88 60.192 9.552C58.272 10.192 56.304 10.896 54.288 11.664C52.272 12.4 50.288 13.168 48.336 13.968C46.416 14.768 44.688 15.584 43.152 16.416C41.616 17.216 40.368 18.032 39.408 18.864C38.48 19.664 37.984 20.432 37.92 21.168C38.08 21.136 38.432 21.072 38.976 20.976C39.552 20.848 40.24 20.704 41.04 20.544C41.84 20.384 42.72 20.208 43.68 20.016C44.672 19.824 45.664 19.648 46.656 19.488C47.68 19.328 48.672 19.2 49.632 19.104C50.592 19.008 51.456 18.96 52.224 18.96C53.248 18.96 54.368 18.976 55.584 19.008C56.8 19.008 58.016 19.072 59.232 19.2C60.448 19.296 61.616 19.472 62.736 19.728C63.856 19.952 64.848 20.304 65.712 20.784C66.608 21.264 67.312 21.888 67.824 22.656C68.368 23.392 68.64 24.32 68.64 25.44ZM25.68 58.32C25.616 58.256 25.568 58.224 25.536 58.224H25.344C25.44 58.16 25.536 58.096 25.632 58.032C25.728 57.968 25.856 57.936 26.016 57.936C26.08 57.936 26.128 57.936 26.16 57.936C26.224 57.968 26.288 57.984 26.352 57.984C26.448 57.984 26.528 57.952 26.592 57.888C26.688 57.856 26.8 57.808 26.928 57.744L27.072 57.264C27.04 57.264 27.008 57.248 26.976 57.216C26.976 57.216 26.944 57.216 26.88 57.216C26.688 57.216 26.416 57.312 26.064 57.504C25.744 57.728 25.408 57.968 25.056 58.224C24.704 58.512 24.368 58.752 24.048 58.944C23.728 59.168 23.472 59.28 23.28 59.28C23.216 59.28 23.184 59.264 23.184 59.232C22.928 59.296 22.704 59.392 22.512 59.52C22.32 59.648 22.128 59.744 21.936 59.808H21.984C22.112 59.808 22.368 59.744 22.752 59.616C23.104 59.52 23.488 59.392 23.904 59.232C24.288 59.072 24.656 58.912 25.008 58.752C25.36 58.592 25.584 58.448 25.68 58.32ZM22.32 58.896C22.32 58.832 22.336 58.784 22.368 58.752C22.368 58.72 22.384 58.704 22.416 58.704C22.384 58.64 22.368 58.608 22.368 58.608C22.336 58.608 22.304 58.592 22.272 58.56C22.24 58.56 22.224 58.544 22.224 58.512C21.392 58.96 20.544 59.36 19.68 59.712C18.816 60.064 17.952 60.464 17.088 60.912L17.136 60.96C17.264 60.96 17.52 60.896 17.904 60.768C18.256 60.64 18.64 60.48 19.056 60.288C19.44 60.128 19.824 59.968 20.208 59.808C20.56 59.648 20.8 59.536 20.928 59.472C21.12 59.376 21.264 59.296 21.36 59.232C21.424 59.2 21.488 59.168 21.552 59.136C21.584 59.104 21.648 59.072 21.744 59.04C21.84 59.008 22.032 58.96 22.32 58.896ZM20.352 57.216H20.304H20.208C20.176 57.216 20.16 57.2 20.16 57.168C19.52 57.616 18.944 57.968 18.432 58.224C17.92 58.48 17.44 58.8 16.992 59.184C17.12 59.184 17.232 59.136 17.328 59.04C17.392 58.976 17.472 58.944 17.568 58.944C17.664 58.944 17.728 58.96 17.76 58.992C18.016 58.96 18.288 58.88 18.576 58.752C18.832 58.624 19.088 58.464 19.344 58.272C19.568 58.112 19.776 57.936 19.968 57.744C20.128 57.552 20.256 57.376 20.352 57.216ZM21.888 53.28C20.864 53.632 19.92 54.032 19.056 54.48C18.16 54.928 17.232 55.376 16.272 55.824L17.136 55.536C17.136 55.568 17.136 55.584 17.136 55.584C17.104 55.584 17.088 55.6 17.088 55.632C17.088 55.664 17.12 55.712 17.184 55.776L17.28 55.872C17.92 55.36 18.624 54.912 19.392 54.528C20.16 54.144 20.944 53.808 21.744 53.52L21.888 53.28ZM14.064 64.944V64.848C14.064 64.816 14.08 64.784 14.112 64.752C14.112 64.72 14.112 64.672 14.112 64.608C14.592 64.544 15.072 64.416 15.552 64.224C16.032 64.032 16.528 63.808 17.04 63.552C17.008 63.68 16.864 63.824 16.608 63.984C16.352 64.144 16.064 64.288 15.744 64.416C15.424 64.576 15.104 64.704 14.784 64.8C14.464 64.896 14.224 64.944 14.064 64.944ZM22.416 58.704L22.608 58.416C22.864 58.352 23.152 58.24 23.472 58.08L24.048 57.792C24.144 57.792 24.192 57.824 24.192 57.888C24.192 57.984 24.224 58.064 24.288 58.128C24.288 58.096 24.288 58.064 24.288 58.032C24.32 58 24.336 57.952 24.336 57.888V57.792L24.384 57.888L24.576 57.936L24.864 57.84C25.056 57.776 25.168 57.744 25.2 57.744L24.912 57.552C24.912 57.52 24.928 57.472 24.96 57.408C24.992 57.376 25.008 57.344 25.008 57.312C25.04 57.28 25.088 57.248 25.152 57.216C24.992 57.248 24.784 57.312 24.528 57.408C24.304 57.536 24.064 57.664 23.808 57.792C23.52 57.952 23.248 58.08 22.992 58.176C22.736 58.304 22.544 58.384 22.416 58.416C22.448 58.448 22.48 58.464 22.512 58.464L22.56 58.416L22.416 58.704ZM32.592 47.424C32.368 47.584 32.128 47.728 31.872 47.856C31.616 47.952 31.36 48.048 31.104 48.144C30.848 48.272 30.608 48.4 30.384 48.528C30.16 48.688 29.968 48.896 29.808 49.152L32.4 47.712L32.592 47.424ZM25.824 57.36C26.016 57.36 26.32 57.248 26.736 57.024C27.152 56.8 27.44 56.624 27.6 56.496C27.536 56.496 27.408 56.512 27.216 56.544C27.056 56.608 26.864 56.672 26.64 56.736C26.448 56.8 26.256 56.88 26.064 56.976C25.872 57.072 25.76 57.184 25.728 57.312C25.728 57.344 25.76 57.36 25.824 57.36ZM26.16 50.928C26.352 50.832 26.592 50.688 26.88 50.496C27.2 50.304 27.36 50.128 27.36 49.968C27.104 50.128 26.864 50.24 26.64 50.304C26.448 50.368 26.272 50.48 26.112 50.64L26.16 50.928ZM26.592 52.176C26.816 52.08 27.056 51.984 27.312 51.888C27.568 51.792 27.888 51.744 28.272 51.744C28.016 51.808 27.792 51.92 27.6 52.08C27.408 52.24 27.232 52.32 27.072 52.32C26.944 52.32 26.784 52.272 26.592 52.176ZM23.136 53.664C23.232 53.6 23.296 53.552 23.328 53.52L23.664 53.952C23.504 54.08 23.376 54.16 23.28 54.192C23.152 54.256 22.976 54.352 22.752 54.48C22.784 54.416 22.8 54.384 22.8 54.384C22.8 54.352 22.768 54.304 22.704 54.24L22.656 54.192C22.88 54.192 22.976 54.176 22.944 54.144C22.912 54.112 22.976 53.952 23.136 53.664ZM8.784 60.384C8.752 60.384 8.736 60.368 8.736 60.336V60.24L10.272 59.712C9.792 60.032 9.296 60.256 8.784 60.384ZM20.976 59.952C20.592 60.176 20.272 60.352 20.016 60.48C19.728 60.608 19.44 60.72 19.152 60.816C19.504 60.72 19.872 60.608 20.256 60.48C20.608 60.352 20.848 60.176 20.976 59.952ZM12.048 57.552C12.144 57.456 12.288 57.408 12.48 57.408C12.64 57.44 12.8 57.376 12.96 57.216C12.96 57.376 12.912 57.472 12.816 57.504C12.688 57.568 12.576 57.6 12.48 57.6C12.416 57.6 12.352 57.6 12.288 57.6C12.192 57.632 12.112 57.616 12.048 57.552ZM10.416 64.32C10.544 64.16 10.688 64.048 10.848 63.984C11.008 63.92 11.168 63.888 11.328 63.888C11.456 63.888 11.536 63.904 11.568 63.936C11.312 63.968 11.088 64.032 10.896 64.128C10.704 64.256 10.496 64.336 10.272 64.368L10.416 64.32ZM27.408 49.872C27.44 49.936 27.52 49.968 27.648 49.968C27.808 49.968 27.984 49.92 28.176 49.824C28.368 49.728 28.496 49.632 28.56 49.536C28.336 49.632 28.128 49.712 27.936 49.776C27.776 49.84 27.6 49.872 27.408 49.872ZM20.64 58.32C20.48 58.416 20.32 58.512 20.16 58.608C20 58.704 19.84 58.816 19.68 58.944C19.84 58.88 20.016 58.816 20.208 58.752C20.368 58.688 20.512 58.544 20.64 58.32ZM23.184 52.176C23.28 52.112 23.408 52.048 23.568 51.984C23.728 51.92 23.888 51.76 24.048 51.504C23.76 51.76 23.392 51.984 22.944 52.176H23.184ZM22.608 52.512C22.576 52.48 22.528 52.464 22.464 52.464C22.336 52.464 22.176 52.512 21.984 52.608C21.792 52.704 21.632 52.784 21.504 52.848C21.76 52.848 21.952 52.8 22.08 52.704C22.208 52.608 22.384 52.544 22.608 52.512ZM6.96 57.552C6.992 57.552 7.024 57.552 7.056 57.552C7.056 57.584 7.088 57.6 7.152 57.6C7.248 57.6 7.376 57.568 7.536 57.504C7.696 57.472 7.856 57.392 8.016 57.264C7.824 57.52 7.584 57.648 7.296 57.648C7.2 57.648 7.088 57.616 6.96 57.552ZM20.736 60.384L20.688 60.528H20.928L20.736 60.384ZM84.8063 49.296C83.0143 49.872 81.3023 50.16 79.6703 50.16C78.1343 50.16 76.6943 49.872 75.3503 49.296C74.0383 48.752 72.8863 47.904 71.8943 46.752C70.9343 45.568 70.1822 44.048 69.6382 42.192C69.0622 40.336 68.7742 38.112 68.7742 35.52C68.7742 32.16 69.2542 29.008 70.2142 26.064C71.1423 23.12 72.4543 20.432 74.1503 18C75.8463 15.536 77.8623 13.344 80.1983 11.424C82.5343 9.472 85.0783 7.84 87.8303 6.528C90.6143 5.184 93.5583 4.16 96.6623 3.456C99.7663 2.752 102.95 2.4 106.214 2.4C108.806 2.4 111.27 2.704 113.606 3.312C115.942 3.888 117.99 4.848 119.75 6.192C121.51 7.504 122.902 9.232 123.926 11.376C124.95 13.52 125.462 16.128 125.462 19.2C125.462 23.36 124.694 27.184 123.158 30.672C121.654 34.16 119.622 37.264 117.062 39.984C114.502 42.672 111.542 44.944 108.182 46.8C104.854 48.656 101.366 50.032 97.7183 50.928C99.2863 53.136 100.918 55.184 102.614 57.072C104.342 58.992 106.022 60.72 107.654 62.256C109.286 63.792 110.806 65.12 112.214 66.24C113.654 67.392 114.87 68.288 115.862 68.928L116.774 69.024C117.03 69.28 117.334 69.472 117.686 69.6C118.038 69.728 118.39 69.824 118.742 69.888L119.846 69.936L119.366 70.032L118.406 69.984C118.15 69.92 117.894 69.856 117.638 69.792C117.414 69.76 117.19 69.696 116.966 69.6C117.702 70.048 118.326 70.368 118.838 70.56C119.382 70.784 119.766 70.896 119.99 70.896C120.182 70.896 120.278 70.848 120.278 70.752C120.278 70.688 120.214 70.56 120.086 70.368C120.342 70.624 120.662 70.864 121.046 71.088C121.43 71.344 121.83 71.552 122.246 71.712C122.278 71.712 122.31 71.696 122.342 71.664C122.406 71.6 122.47 71.568 122.534 71.568C122.566 71.568 122.614 71.584 122.678 71.616C122.742 71.648 122.774 71.696 122.774 71.76C122.774 71.824 122.662 71.856 122.438 71.856C122.182 71.856 121.862 71.84 121.478 71.808C121.094 71.776 120.726 71.76 120.374 71.76C120.086 71.76 119.83 71.776 119.606 71.808C119.382 71.84 119.206 71.92 119.078 72.048C120.294 72.304 121.302 72.528 122.102 72.72C122.934 72.944 123.59 73.136 124.07 73.296C124.55 73.456 124.886 73.584 125.078 73.68C125.302 73.808 125.414 73.92 125.414 74.016C125.414 74.176 125.206 74.272 124.79 74.304C124.374 74.368 123.942 74.4 123.494 74.4H122.822C123.078 74.56 123.302 74.752 123.494 74.976L127.574 76.8L123.926 75.696C123.926 75.728 123.926 75.744 123.926 75.744C123.958 75.744 123.974 75.76 123.974 75.792V75.888C123.974 75.92 123.958 75.936 123.926 75.936C123.766 75.936 123.366 75.84 122.726 75.648C122.086 75.456 121.43 75.264 120.758 75.072L120.95 75.312H120.038L119.75 74.928H120.278C119.926 74.864 119.606 74.8 119.318 74.736C119.03 74.672 118.806 74.64 118.646 74.64C118.422 74.64 118.31 74.688 118.31 74.784C118.31 74.784 118.454 74.864 118.742 75.024C119.03 75.184 119.414 75.376 119.894 75.6C120.374 75.856 120.902 76.128 121.478 76.416C122.086 76.736 122.678 77.04 123.254 77.328C123.35 77.328 123.43 77.376 123.494 77.472C124.006 77.728 124.422 77.952 124.742 78.144C125.062 78.368 125.222 78.512 125.222 78.576C125.222 78.608 125.142 78.624 124.982 78.624C124.726 78.624 124.31 78.56 123.734 78.432C123.19 78.304 122.55 78.128 121.814 77.904C121.11 77.712 120.342 77.488 119.51 77.232C118.71 77.008 117.942 76.784 117.206 76.56C116.47 76.336 115.798 76.128 115.19 75.936C114.614 75.744 114.182 75.6 113.894 75.504L129.446 81.024C129.446 81.056 129.414 81.072 129.35 81.072C129.094 81.072 128.486 80.912 127.526 80.592C126.598 80.304 125.478 79.936 124.166 79.488C122.886 79.04 121.51 78.544 120.038 78C118.566 77.456 117.206 76.96 115.958 76.512C114.71 76.064 113.654 75.68 112.79 75.36C111.926 75.072 111.43 74.928 111.302 74.928C111.302 75.056 111.718 75.296 112.55 75.648C113.414 76.032 114.454 76.448 115.67 76.896C116.886 77.376 118.166 77.872 119.51 78.384C120.854 78.896 122.006 79.344 122.966 79.728L123.542 79.776L127.478 81.504L125.03 80.784C125.03 80.816 125.03 80.832 125.03 80.832C125.062 80.832 125.078 80.848 125.078 80.88H124.934C124.838 80.88 124.742 80.88 124.646 80.88C124.55 80.912 124.47 80.928 124.406 80.928C124.438 80.928 124.31 80.88 124.022 80.784C123.734 80.72 123.382 80.624 122.966 80.496C122.582 80.368 122.182 80.224 121.766 80.064C121.35 79.936 121.03 79.824 120.806 79.728C117.126 78.736 113.846 77.568 110.966 76.224C108.118 74.912 105.558 73.488 103.286 71.952C101.046 70.416 99.0783 68.784 97.3823 67.056C95.6863 65.36 94.1663 63.648 92.8223 61.92C91.5103 60.192 90.3263 58.48 89.2703 56.784C88.2463 55.12 87.2863 53.52 86.3903 51.984L84.8063 49.296ZM89.7503 37.968C90.2623 37.968 90.7103 38.288 91.0943 38.928L91.1423 39.024C91.4303 39.472 91.6543 40.016 91.8143 40.656C92.1663 41.456 92.5343 42.24 92.9183 43.008C93.3023 43.776 93.7183 44.544 94.1663 45.312C96.7903 44.224 99.1743 42.88 101.318 41.28C103.494 39.648 105.35 37.792 106.886 35.712C108.422 33.6 109.606 31.28 110.438 28.752C111.27 26.224 111.686 23.52 111.686 20.64C111.686 19.456 111.542 18.384 111.254 17.424C110.998 16.464 110.534 15.648 109.862 14.976C109.19 14.304 108.278 13.792 107.126 13.44C106.006 13.056 104.582 12.864 102.854 12.864C99.5903 12.864 96.6943 13.408 94.1663 14.496C91.6703 15.552 89.5583 17.04 87.8303 18.96C86.1343 20.848 84.8383 23.088 83.9423 25.68C83.0463 28.272 82.5983 31.088 82.5983 34.128C82.5983 35.824 82.8383 37.168 83.3183 38.16C83.8303 39.152 84.4223 39.648 85.0943 39.648C85.4463 39.648 85.8143 39.568 86.1983 39.408C86.5823 39.216 86.9663 39.024 87.3503 38.832C87.7343 38.608 88.1343 38.416 88.5503 38.256C88.9663 38.064 89.3663 37.968 89.7503 37.968ZM112.982 72.288L112.358 72.24C112.774 72.592 113.174 72.88 113.558 73.104C113.974 73.36 114.39 73.632 114.806 73.92H115.622C115.238 73.632 114.838 73.36 114.422 73.104C114.038 72.88 113.67 72.608 113.318 72.288H112.982ZM114.182 69.216C114.118 69.184 114.038 69.168 113.942 69.168C113.814 69.168 113.718 69.216 113.654 69.312C113.622 69.44 113.558 69.536 113.462 69.6L114.086 69.648C114.406 69.808 114.71 69.936 114.998 70.032C115.318 70.16 115.622 70.304 115.91 70.464L114.182 69.216ZM110.87 69.12C110.966 69.088 111.062 69.072 111.158 69.072C111.254 69.104 111.366 69.104 111.494 69.072L112.31 69.168C112.182 69.136 111.99 69.088 111.734 69.024C111.478 68.96 111.206 68.88 110.918 68.784C110.662 68.72 110.422 68.656 110.198 68.592C109.974 68.56 109.846 68.544 109.814 68.544L110.87 69.12ZM111.35 72.72C111.094 72.56 110.822 72.432 110.534 72.336C110.278 72.24 110.022 72.16 109.766 72.096L109.67 72.048L109.814 72.384C110.262 72.384 110.63 72.464 110.918 72.624C111.206 72.816 111.35 72.848 111.35 72.72ZM113.174 69.6C113.11 69.6 113.062 69.584 113.03 69.552C112.998 69.552 112.966 69.552 112.934 69.552C112.87 69.552 112.806 69.584 112.742 69.648H113.318C113.286 69.648 113.254 69.632 113.222 69.6C113.222 69.6 113.206 69.6 113.174 69.6Z" fill="white"/>
</svg>
